<svg width="619" height="666" viewBox="0 0 619 666" fill="none" xmlns="http://www.w3.org/2000/svg">
<path opacity="0.1" d="M397.443 666C472.798 666 533.886 604.887 533.886 529.5C533.886 454.113 472.798 393 397.443 393C322.088 393 261 454.113 261 529.5C261 604.887 322.088 666 397.443 666Z" fill="url(#paint0_linear)"/>
<ellipse cx="309.5" cy="309" rx="309.5" ry="309" fill="url(#paint1_linear)"/>
<rect width="234.44" height="253.196" rx="93" transform="matrix(-1 0 0 1 428.483 261.679)" fill="white"/>
<rect width="67.2062" height="160.982" rx="33.6031" transform="matrix(-1 0 0 1 228.427 261.679)" fill="white"/>
<rect width="67.2062" height="160.982" rx="33.6031" transform="matrix(-1 0 0 1 461.304 261.679)" fill="white"/>
<path fill-rule="evenodd" clip-rule="evenodd" d="M461.947 261.679V292.021C461.947 334.824 427.249 369.521 384.447 369.521H236.514C193.712 369.521 159.014 334.823 159.014 292.021V261.679H461.947Z" fill="black"/>
<rect width="300.084" height="21.8811" transform="matrix(-1 0 0 1 461.304 239.798)" fill="white"/>
<path d="M489.537 179.086C495.08 193.541 484.668 214.541 461.823 239.798H165.288C141.588 218.534 123.718 196.432 132.032 179.086C140.346 161.74 184.688 179.086 224.872 141.503C265.057 103.919 317.713 103.919 317.713 103.919C320.749 103.356 362.054 103.919 406.396 144.394C450.738 184.868 483.993 164.631 489.537 179.086Z" fill="black" stroke="black" stroke-linecap="round" stroke-linejoin="round"/>
<path d="M312.513 203.85C329.218 194.613 336.492 186.275 337.832 153.836H281.567C286.742 187.174 293.7 197.753 312.513 203.85Z" fill="white" stroke="white" stroke-linecap="round" stroke-linejoin="round"/>
<defs>
<linearGradient id="paint0_linear" x1="587.621" y1="-19.986" x2="382.947" y2="695.266" gradientUnits="userSpaceOnUse">
<stop stop-color="#5498FF"/>
<stop offset="0.515625" stop-color="#428EFF"/>
<stop offset="1" stop-color="#297FFF"/>
</linearGradient>
<linearGradient id="paint1_linear" x1="531.533" y1="111.221" x2="61.598" y2="494.261" gradientUnits="userSpaceOnUse">
<stop stop-color="#5498FF"/>
<stop offset="1" stop-color="#297FFF"/>
</linearGradient>
</defs>
</svg>
